<?xml version="1.0" encoding="utf-8"?>
<!DOCTYPE svg PUBLIC "-//W3C//DTD SVG 1.1//EN" "http://www.w3.org/Graphics/SVG/1.1/DTD/svg11.dtd">
<svg version="1.1" xmlns="http://www.w3.org/2000/svg" xmlns:xlink="http://www.w3.org/1999/xlink" x="0px" y="0px" width="110.989px" height="108.5px" viewBox="0 0 110.989 108.5" enable-background="new 0 0 110.989 108.5" xml:space="preserve">
  <g>
    <path fill="#7398A3" d="M100.901,23.349c0-2.297-1.553-3.849-3.85-3.849h-45.15v-4.469c0-2.296-1.951-3.531-4.248-3.531H14.89
      c-2.297,0-3.988,1.235-3.988,3.531v8.317V24.5h90V23.349z"/>
  </g>
  <path fill="#A0D4E4" d="M100.901,27.5c2.75,0,4.851,2.155,4.668,4.789l-4.336,62.421c-0.183,2.635-2.582,4.79-5.332,4.79h-80
    c-2.75,0-5.149-2.155-5.332-4.79L6.233,32.289C6.051,29.655,8.151,27.5,10.901,27.5H100.901z"/>
  <g>
    <path fill="#DADEE0" d="M100.901,25.96c0-2.521-1.25-4.46-3.771-4.46H14.958c-2.521,0-5.057,1.939-5.057,4.46v1.54h91V25.96z"/>
  </g>
</svg>
