<?xml version="1.0" encoding="utf-8"?>
<!DOCTYPE svg PUBLIC "-//W3C//DTD SVG 1.1//EN" "http://www.w3.org/Graphics/SVG/1.1/DTD/svg11.dtd">
<svg version="1.1" id="Ebene_1" xmlns="http://www.w3.org/2000/svg" xmlns:xlink="http://www.w3.org/1999/xlink" x="0px" y="0px"
   width="27.958px" height="27.958px" viewBox="0 0 27.958 27.958" enable-background="new 0 0 27.958 27.958" xml:space="preserve">
<g>
	  linearGradient id="SVGID_1_" gradientUnits="userSpaceOnUse" x1="14.5" y1="26.4585" x2="14.5" y2="0.4585">
		    top  offset="0" style="stop-color:#F7F7F7"/>
		<    op  offset="1" style="stop-color:#FFFFFF"/>
	</l  nearGradient>
	<pat   fill="url(#SVGID_1_)" d="M1.5,24.458c0,1.104,0.896,2,2,2h22c1.104,0,2-0.896,2-2v-22c0-1.104-0.896-2-2-2h-22
		c-1.    4,0-2,0.896-2,2V24.458z"/>
	<path   ill="none" stroke="#CCD3D5" stroke-miterlimit="10" d="M27,2.958c0-1.104-0.896-2-2-2H3c-1.104,0-2,0.896-2,2v22
		c0,1.1    ,0.896,2,2,2h22c1.104,0,2-0.896,2-2V2.958z"/>
</g>
<polyline fill="none" stroke="#889399" stroke-miterlimit="10" points="19.656,16.552 14.594,11.052 8.844,16.552 "/>
</svg>
